<?xml version="1.0" encoding="UTF-8" standalone="no"?>
<!-- Created with Inkscape (http://www.inkscape.org/) -->

<svg
   xmlns:dc="http://purl.org/dc/elements/1.1/"
   xmlns:cc="http://creativecommons.org/ns#"
   xmlns:rdf="http://www.w3.org/1999/02/22-rdf-syntax-ns#"
   xmlns:svg="http://www.w3.org/2000/svg"
   xmlns="http://www.w3.org/2000/svg"
   xmlns:sodipodi="http://sodipodi.sourceforge.net/DTD/sodipodi-0.dtd"
   xmlns:inkscape="http://www.inkscape.org/namespaces/inkscape"
   width="210mm"
   height="297mm"
   viewBox="0 0 210 297"
   version="1.1"
   id="svg8"
   inkscape:version="0.92.4 (5da689c313, 2019-01-14)"
   sodipodi:docname="alien.svg">
  <defs
     id="defs2" />
  <sodipodi:namedview
     id="base"
     pagecolor="#ffffff"
     bordercolor="#666666"
     borderopacity="1.0"
     inkscape:pageopacity="0.0"
     inkscape:pageshadow="2"
     inkscape:zoom="0.92994398"
     inkscape:cx="414.05151"
     inkscape:cy="797.58236"
     inkscape:document-units="mm"
     inkscape:current-layer="layer1"
     showgrid="false"
     inkscape:snap-global="false"
     inkscape:window-width="1920"
     inkscape:window-height="1017"
     inkscape:window-x="-8"
     inkscape:window-y="-8"
     inkscape:window-maximized="1" />
  <metadata
     id="metadata5">
    <rdf:RDF>
      <cc:Work
         rdf:about="">
        <dc:format>image/svg+xml</dc:format>
        <dc:type
           rdf:resource="http://purl.org/dc/dcmitype/StillImage" />
        <dc:title></dc:title>
      </cc:Work>
    </rdf:RDF>
  </metadata>
  <g
     inkscape:label="Layer 1"
     inkscape:groupmode="layer"
     id="layer1">
    <path
       style="opacity:1;fill:#ededed;fill-opacity:0.74324323;stroke:#000000;stroke-width:0.26458332px;stroke-linecap:butt;stroke-linejoin:miter;stroke-opacity:1"
       d="M 65.200893,126.91071 C 59.53125,119.72916 52.916667,116.32738 48.002976,109.52381 43.089286,102.72024 42.900298,91.947914 42.900298,91.947914 42.711309,65.67857 63.499999,53.394345 90.525298,53.205356 117.5506,53.394345 138.33929,65.67857 138.1503,91.947914 c 0,0 -0.18899,10.772326 -5.10268,17.575896 -4.91369,6.80357 -11.52827,10.20535 -17.19792,17.3869 -5.66964,7.18155 -5.35935,31.75 -25.324402,31.75 -19.965049,0 -19.654762,-24.56845 -25.324405,-31.75 z"
       id="path831"
       inkscape:connector-curvature="0"
       sodipodi:nodetypes="zscccszzz" />
    <path
       style="opacity:1;fill:#acacac;fill-opacity:0.74324323;stroke:none;stroke-width:0.26458332px;stroke-linecap:butt;stroke-linejoin:miter;stroke-opacity:1"
       d="m 134.03163,107.90625 c -11.81359,8.89803 -22.2463,10.90376 -32.94056,12.13389 0,0 12.13224,2.17068 14.49459,6.98988 7.89196,-9.37895 12.80569,-10.43921 18.44597,-19.12377 z"
       id="path835"
       inkscape:connector-curvature="0"
       sodipodi:nodetypes="cccc" />
    <path
       sodipodi:nodetypes="zsssz"
       inkscape:connector-curvature="0"
       id="path862"
       d="m 118.76949,75.05964 c -8.65291,-0.452723 -20.141994,10.090021 -20.130484,17.534454 0.0109,7.040779 7.041404,13.982186 16.999944,13.579826 9.95855,-0.40237 12.47333,-5.02957 13.27806,-12.875688 0.80473,-7.846126 -1.49461,-17.785869 -10.14752,-18.238592 z"
       style="opacity:1;fill:#000000;fill-opacity:0.74324323;stroke:none;stroke-width:0.26458332px;stroke-linecap:butt;stroke-linejoin:miter;stroke-opacity:1" />
    <ellipse
       transform="matrix(-0.89342069,0.44922096,0.44922096,0.89342069,0,0)"
       id="ellipse864"
       style="opacity:1;fill:#ffffff;fill-opacity:0.74324323;stroke:none;stroke-width:0.26458332;stroke-miterlimit:4;stroke-dasharray:1.58749988, 1.58749988;stroke-dashoffset:0;stroke-opacity:1"
       ry="2.866854"
       rx="8.9337111"
       cy="125.45992"
       cx="-62.919029" />
    <path
       inkscape:connector-curvature="0"
       id="path868"
       d="m 91.898456,127.35772 c -3.343055,0 -6.117079,-1.28032 -6.117079,0 0,1.28032 4.481116,3.34306 6.117079,3.41419 1.635963,-0.0711 6.117079,-2.13387 6.117079,-3.41419 0,-1.28032 -2.774024,0 -6.117079,0"
       style="fill:#bfbfbf;stroke:none;stroke-width:0.26458332px;stroke-linecap:butt;stroke-linejoin:miter;stroke-opacity:1;fill-opacity:0.98918921;opacity:1"
       sodipodi:nodetypes="cscsc" />
    <path
       style="opacity:1;fill:#cfcfcf;fill-opacity:1;stroke:none;stroke-width:0.26458332px;stroke-linecap:butt;stroke-linejoin:miter;stroke-opacity:1"
       d="m 101.1447,85.875568 c 0,0 7.16058,-16.138982 14.52823,-16.20333 8.14424,-0.07113 9.8562,3.391044 11.7007,5.619178 1.8445,2.228134 1.78406,9.604664 1.70709,13.834556 -0.46396,-4.958977 -2.27793,-11.674564 -6.68611,-13.016575 -4.41247,-1.34332 -9.94671,-3.278461 -21.24991,9.766171 z"
       id="path870"
       inkscape:connector-curvature="0"
       sodipodi:nodetypes="cszcsc" />
    <path
       style="fill:#9a9a9a;fill-opacity:0.98918921;stroke:none;stroke-width:0.5005666px;stroke-linecap:butt;stroke-linejoin:miter;stroke-opacity:1;opacity:1"
       d="m 80.701957,146.93834 c 0,0 6.137783,-1.74811 10.488617,-1.74811 4.350835,0 10.333226,1.86463 10.333226,1.86463 z"
       id="path882"
       inkscape:connector-curvature="0"
       sodipodi:nodetypes="cscc" />
    <path
       sodipodi:nodetypes="cscc"
       inkscape:connector-curvature="0"
       id="path884"
       d="m 80.54657,147.24908 c 0,0 6.137783,1.74812 10.488617,1.74812 4.350835,0 10.333233,-1.86464 10.333233,-1.86464 z"
       style="fill:#c4c4c4;fill-opacity:0.68378386;stroke:none;stroke-width:0.5005666px;stroke-linecap:butt;stroke-linejoin:miter;stroke-opacity:1;opacity:1" />
    <path
       sodipodi:nodetypes="cccc"
       inkscape:connector-curvature="0"
       id="path886"
       d="m 47.138534,107.94181 c 11.81359,8.89803 22.2463,10.90376 32.94056,12.13389 0,0 -12.13224,2.17068 -14.49459,6.98988 -7.89196,-9.37895 -12.80569,-10.43921 -18.44597,-19.12377 z"
       style="opacity:1;fill:#acacac;fill-opacity:0.74324323;stroke:none;stroke-width:0.26458332px;stroke-linecap:butt;stroke-linejoin:miter;stroke-opacity:1" />
    <path
       style="opacity:1;fill:#000000;fill-opacity:0.74324323;stroke:none;stroke-width:0.26458332px;stroke-linecap:butt;stroke-linejoin:miter;stroke-opacity:1"
       d="m 62.707338,75.05964 c 8.65291,-0.452723 20.14199,10.090021 20.13048,17.534454 -0.0109,7.040779 -7.0414,13.982186 -16.99994,13.579826 -9.95855,-0.40237 -12.47333,-5.02957 -13.27806,-12.875688 -0.80473,-7.846126 1.49461,-17.785869 10.14752,-18.238592 z"
       id="path888"
       inkscape:connector-curvature="0"
       sodipodi:nodetypes="zsssz" />
    <ellipse
       cx="99.216118"
       cy="43.936718"
       rx="8.9337111"
       ry="2.866854"
       style="opacity:1;fill:#ffffff;fill-opacity:0.74324323;stroke:none;stroke-width:0.26458332;stroke-miterlimit:4;stroke-dasharray:1.58749988, 1.58749988;stroke-dashoffset:0;stroke-opacity:1"
       id="ellipse890"
       transform="rotate(26.693713)" />
    <path
       sodipodi:nodetypes="cszcsc"
       inkscape:connector-curvature="0"
       id="path892"
       d="m 80.332128,85.875568 c 0,0 -7.16058,-16.138982 -14.52823,-16.20333 -8.14424,-0.07113 -9.8562,3.391044 -11.7007,5.619178 -1.8445,2.228134 -1.78406,9.604664 -1.70709,13.834556 0.46396,-4.958977 2.27793,-11.674564 6.68611,-13.016575 4.41247,-1.34332 9.94671,-3.278461 21.24991,9.766171 z"
       style="opacity:1;fill:#cfcfcf;fill-opacity:1;stroke:none;stroke-width:0.26458332px;stroke-linecap:butt;stroke-linejoin:miter;stroke-opacity:1" />
  </g>
</svg>
