<?xml version="1.0" encoding="UTF-8" standalone="no"?>
<svg
   xmlns:dc="http://purl.org/dc/elements/1.1/"
   xmlns:cc="http://creativecommons.org/ns#"
   xmlns:rdf="http://www.w3.org/1999/02/22-rdf-syntax-ns#"
   xmlns:svg="http://www.w3.org/2000/svg"
   xmlns="http://www.w3.org/2000/svg"
   xmlns:xlink="http://www.w3.org/1999/xlink"
   xmlns:sodipodi="http://sodipodi.sourceforge.net/DTD/sodipodi-0.dtd"
   xmlns:inkscape="http://www.inkscape.org/namespaces/inkscape"
   inkscape:export-ydpi="38.400002"
   inkscape:export-xdpi="38.400002"
   inkscape:export-filename="D:\SpaceTrader\assets\cargos\calcium.png"
   sodipodi:docname="cargos_icons.svg"
   inkscape:version="1.0 (4035a4fb49, 2020-05-01)"
   id="svg8"
   version="1.1"
   viewBox="0 0 26.458333 26.458334"
   height="100"
   width="100">
  <defs
     id="defs2">
    <linearGradient
       id="linearGradient1075"
       inkscape:collect="always">
      <stop
         id="stop1071"
         offset="0"
         style="stop-color:#494949;stop-opacity:1;" />
      <stop
         style="stop-color:#898989;stop-opacity:1"
         offset="0.31372544"
         id="stop1081" />
      <stop
         id="stop1083"
         offset="0.39347908"
         style="stop-color:#494949;stop-opacity:1;" />
      <stop
         style="stop-color:#8e8e8e;stop-opacity:1"
         offset="0.67077589"
         id="stop1085" />
      <stop
         style="stop-color:#494949;stop-opacity:1;"
         offset="0.80392158"
         id="stop1079" />
      <stop
         id="stop1073"
         offset="1"
         style="stop-color:#494949;stop-opacity:1" />
    </linearGradient>
    <linearGradient
       id="linearGradient1065"
       inkscape:collect="always">
      <stop
         id="stop1061"
         offset="0"
         style="stop-color:#868686;stop-opacity:1" />
      <stop
         style="stop-color:#656565;stop-opacity:1"
         offset="0.57977527"
         id="stop1067" />
      <stop
         id="stop1063"
         offset="1"
         style="stop-color:#737373;stop-opacity:1" />
    </linearGradient>
    <linearGradient
       id="linearGradient919"
       inkscape:collect="always">
      <stop
         id="stop915"
         offset="0"
         style="stop-color:#dae234;stop-opacity:1;" />
      <stop
         style="stop-color:#eaef8e;stop-opacity:1"
         offset="0.18638261"
         id="stop923" />
      <stop
         id="stop917"
         offset="1"
         style="stop-color:#dae234;stop-opacity:1" />
    </linearGradient>
    <linearGradient
       id="linearGradient843"
       inkscape:collect="always">
      <stop
         id="stop839"
         offset="0"
         style="stop-color:#747474;stop-opacity:1" />
      <stop
         style="stop-color:#747474;stop-opacity:1;"
         offset="0.13783512"
         id="stop851" />
      <stop
         style="stop-color:#313131;stop-opacity:1"
         offset="0.22060406"
         id="stop847" />
      <stop
         id="stop849"
         offset="0.33817172"
         style="stop-color:#747474;stop-opacity:1;" />
      <stop
         style="stop-color:#747474;stop-opacity:1;"
         offset="0.49881276"
         id="stop853" />
      <stop
         id="stop855"
         offset="0.65759492"
         style="stop-color:#1a1a1a;stop-opacity:1" />
      <stop
         style="stop-color:#747474;stop-opacity:1;"
         offset="0.74897856"
         id="stop857" />
      <stop
         id="stop859"
         offset="0.86400729"
         style="stop-color:#747474;stop-opacity:1;" />
      <stop
         id="stop841"
         offset="1"
         style="stop-color:#747474;stop-opacity:1" />
    </linearGradient>
    <linearGradient
       gradientTransform="matrix(1.5997146,0,0,1.6835409,-8.3188374,-2.4011378)"
       gradientUnits="userSpaceOnUse"
       y2="6.1882248"
       x2="13.318301"
       y1="9.1422997"
       x1="18.686199"
       id="linearGradient845"
       xlink:href="#linearGradient843"
       inkscape:collect="always" />
    <linearGradient
       gradientTransform="matrix(1.5997146,0,0,1.6835409,-7.1904827,-7.6109573)"
       gradientUnits="userSpaceOnUse"
       y2="13.961495"
       x2="14.504836"
       y1="14.693824"
       x1="8.9769344"
       id="linearGradient867"
       xlink:href="#linearGradient843"
       inkscape:collect="always" />
    <linearGradient
       gradientTransform="matrix(1.4937371,0.60257318,-0.57257007,1.57201,0.57615263,-9.7067404)"
       gradientUnits="userSpaceOnUse"
       y2="10.323475"
       x2="8.0319939"
       y1="8.6934528"
       x1="4.7719493"
       id="linearGradient875"
       xlink:href="#linearGradient843"
       inkscape:collect="always" />
    <linearGradient
       gradientTransform="translate(41.224597,40.388297)"
       gradientUnits="userSpaceOnUse"
       y2="15.610568"
       x2="20.099291"
       y1="12.047991"
       x1="6.8035717"
       id="linearGradient921"
       xlink:href="#linearGradient919"
       inkscape:collect="always" />
    <linearGradient
       gradientTransform="matrix(0.26458333,0,0,0.26458333,68.980655,25.513393)"
       gradientUnits="userSpaceOnUse"
       y2="30.446428"
       x2="83.928574"
       y1="37.142857"
       x1="54.910717"
       id="linearGradient1059"
       xlink:href="#linearGradient1065"
       inkscape:collect="always" />
    <linearGradient
       gradientTransform="translate(68.980655,25.513393)"
       gradientUnits="userSpaceOnUse"
       y2="12.160764"
       x2="12.428033"
       y1="20.679979"
       x1="12.428033"
       id="linearGradient1077"
       xlink:href="#linearGradient1075"
       inkscape:collect="always" />
  </defs>
  <sodipodi:namedview
     inkscape:snap-bbox-edge-midpoints="true"
     inkscape:snap-page="false"
     inkscape:bbox-nodes="true"
     inkscape:snap-bbox="true"
     inkscape:window-maximized="1"
     inkscape:window-y="-8"
     inkscape:window-x="-8"
     inkscape:window-height="1017"
     inkscape:window-width="1920"
     units="px"
     showgrid="false"
     inkscape:document-rotation="0"
     inkscape:current-layer="layer1"
     inkscape:document-units="px"
     inkscape:cy="69.807512"
     inkscape:cx="17.091393"
     inkscape:zoom="3.959798"
     inkscape:pageshadow="2"
     inkscape:pageopacity="0.0"
     borderopacity="1.0"
     bordercolor="#666666"
     pagecolor="#ffffff"
     id="base" />
  <metadata
     id="metadata5">
    <rdf:RDF>
      <cc:Work
         rdf:about="">
        <dc:format>image/svg+xml</dc:format>
        <dc:type
           rdf:resource="http://purl.org/dc/dcmitype/StillImage" />
        <dc:title></dc:title>
      </cc:Work>
    </rdf:RDF>
  </metadata>
  <g
     id="layer1"
     inkscape:groupmode="layer"
     inkscape:label="Layer 1">
    <g
       transform="translate(47.106255,2.3386084)"
       id="g883">
      <path
         style="fill:url(#linearGradient845);fill-opacity:1;stroke:#000000;stroke-width:0.434205;stroke-linecap:round;stroke-linejoin:round;stroke-opacity:1"
         d="m 14.809177,4.7576686 c 0,0 4.534907,-0.7158807 6.500032,0.5567961 1.965125,1.2726761 3.174433,3.1816916 3.174433,3.1816916 L 18.663846,19.472991 10.12311,12.552813 Z"
         id="path833" />
      <path
         style="fill:url(#linearGradient875);fill-opacity:1;stroke:#000000;stroke-width:0.434205;stroke-linecap:round;stroke-linejoin:round;stroke-opacity:1"
         d="m 9.1593701,4.0631917 c 0,0 -2.718276,0.3516043 -4.1226861,1.3184072 C 3.6322733,6.3484026 2.2125876,8.2460837 2.2125876,8.2460837 l 2.1031569,2.8928693 c 0,0 0.666918,-0.497636 1.0527318,-0.0012 0.3858133,0.496381 0.3823134,2.283867 0.3823134,2.283867 l 8.9134823,-2.026554 z"
         id="path837" />
      <path
         style="fill:url(#linearGradient867);fill-opacity:1;stroke:#000000;stroke-width:0.434205;stroke-linecap:round;stroke-linejoin:round;stroke-opacity:1"
         d="M 5.7339973,8.8542971 15.408462,8.7747581 16.013115,21.66061 c 0,0 -3.854669,1.352219 -5.66863,1.352219 -1.8139639,0 -3.8546708,-2.943065 -4.0058338,-5.408877 C 6.1874871,15.138142 5.7339973,8.8542993 5.7339973,8.8542993 Z"
         id="path835" />
      <rect
         style="opacity:0;fill:#1a1a1a;fill-opacity:1;stroke:#000000;stroke-width:0.264583;stroke-linecap:round;stroke-linejoin:round;stroke-opacity:1"
         id="rect877"
         width="26.458332"
         height="26.458332"
         x="0"
         y="0" />
    </g>
    <path
       id="path885"
       d="m 46.327276,57.680708 c 0,0 1.559151,0.330729 2.22061,0.661458 0.661458,0.330729 0.897693,2.456845 1.653645,2.362351 0.755953,-0.09449 3.260046,-1.41741 4.204986,-1.322916 0.944941,0.09449 2.409598,0.755952 5.197173,0.141741 2.787574,-0.614212 3.16555,-2.315105 4.063244,-2.456846 0.897693,-0.141741 2.078869,-0.755952 1.275669,-1.984375 -0.803199,-1.228422 -5.102678,-3.921503 -6.142113,-5.575148 -1.039434,-1.653646 -2.740327,-4.582961 -3.685267,-5.008184 -0.944941,-0.425224 -4.960939,3.307291 -6.094867,4.299479 -1.133929,0.992187 -5.433408,5.149925 -5.527902,6.614583 -0.09449,1.464657 2.834822,2.267857 2.834822,2.267857 z"
       style="opacity:1;fill:url(#linearGradient921);fill-opacity:1;stroke:#470d0d;stroke-width:0.264583;stroke-linecap:round;stroke-linejoin:round;stroke-opacity:1" />
    <g
       id="g1028">
      <rect
         style="opacity:1;fill:#000000;fill-opacity:1;stroke:none;stroke-width:0.264583;stroke-linecap:round;stroke-linejoin:round;stroke-opacity:1"
         id="rect997"
         width="26.458332"
         height="26.458332"
         x="54.522984"
         y="-36.215023" />
      <g
         id="g969"
         transform="translate(55.728967,-37.056944)"
         style="stroke:#ffffff;stroke-opacity:1">
        <path
           id="path957"
           d="m 20.877233,21.064954 -3.104354,-0.377648 -0.635112,-2.020219 -2.22331,-1.265678 1.755686,-3.715477 2.568135,0.0744 2.689334,-0.868671 1.026144,2.624357 1.409601,1.629776 -0.883398,1.569431 z"
           style="opacity:1;fill:#000000;fill-opacity:1;stroke:#ffffff;stroke-width:0.264583;stroke-linecap:round;stroke-linejoin:round;stroke-opacity:1" />
        <path
           id="path959"
           d="m 16.949026,16.405987 1.351609,0.717265 -0.04569,-0.602402 -1.166261,-0.322791 z"
           style="opacity:1;fill:#ffffff;fill-opacity:1;stroke:#ffffff;stroke-width:0.210131;stroke-linecap:round;stroke-linejoin:round;stroke-opacity:1" />
        <path
           style="opacity:1;fill:#ffffff;fill-opacity:1;stroke:#ffffff;stroke-width:0.159187;stroke-linecap:round;stroke-linejoin:round;stroke-opacity:1"
           d="m 20.88082,13.611627 -0.564473,0.965746 0.436948,0.04693 0.273052,-0.87406 z"
           id="path961" />
        <path
           id="path963"
           d="m 21.023624,17.999007 -1.058722,0.912684 0.120137,0.578321 0.870335,-1.099521 z"
           style="opacity:1;fill:#ffffff;fill-opacity:1;stroke:#ffffff;stroke-width:0.20197;stroke-linecap:round;stroke-linejoin:round;stroke-opacity:1" />
      </g>
      <g
         id="g989"
         transform="translate(53.041029,-38.179531)"
         style="stroke:#ffffff;stroke-opacity:1">
        <path
           id="path941"
           d="M 5.4334076,21.355655 4.0159969,18.56808 5.3389135,16.914434 5.1499256,14.363095 l 4.063244,-0.614211 1.3701634,2.173363 2.22061,1.74814 -1.606398,2.315104 -0.566965,2.078869 -1.7953867,0.141741 z"
           style="opacity:1;fill:#000000;fill-opacity:1;stroke:#ffffff;stroke-width:0.264583;stroke-linecap:round;stroke-linejoin:round;stroke-opacity:1" />
        <path
           id="path943"
           d="M 7.110677,15.497024 7.2688766,17.01896 7.7434751,16.645151 7.3611597,15.497024 Z"
           style="opacity:1;fill:#ffffff;fill-opacity:1;stroke:#ffffff;stroke-width:0.210131;stroke-linecap:round;stroke-linejoin:round;stroke-opacity:1" />
        <path
           id="path947"
           d="M 8.0601567,19.767685 6.7121982,19.397701 6.2991028,19.819886 7.6971217,19.929311 Z"
           style="opacity:1;fill:#ffffff;fill-opacity:1;stroke:#ffffff;stroke-width:0.20197;stroke-linecap:round;stroke-linejoin:round;stroke-opacity:1" />
      </g>
      <g
         id="g984"
         transform="matrix(1.1308438,0,0,1.0938754,51.133566,-37.228503)"
         style="stroke:#ffffff;stroke-opacity:1">
        <path
           style="opacity:1;fill:#ffffff;fill-opacity:1;stroke:#ffffff;stroke-width:0.159187;stroke-linecap:round;stroke-linejoin:round;stroke-opacity:1"
           d="m 11.622617,17.20285 -1.116428,0.06989 0.204681,0.388887 0.877828,-0.260684 z"
           id="path945" />
        <path
           style="opacity:1;fill:#000000;fill-opacity:1;stroke:#ffffff;stroke-width:0.264583;stroke-linecap:round;stroke-linejoin:round;stroke-opacity:1"
           d="m 17.273789,21.027626 -3.084141,0.517401 -1.181486,-1.757482 -2.490812,-0.583869 0.631013,-4.060668 2.483976,-0.656291 2.333002,-1.595058 1.727667,2.22607 1.81361,1.1636 -0.402522,1.755415 z"
           id="path949" />
        <path
           style="opacity:1;fill:#ffffff;fill-opacity:1;stroke:#ffffff;stroke-width:0.210131;stroke-linecap:round;stroke-linejoin:round;stroke-opacity:1"
           d="m 11.304495,17.365473 1.499448,0.304914 -0.214496,-0.564772 -1.209927,0.02088 z"
           id="path951" />
        <path
           id="path953"
           d="m 15.165437,13.878713 -0.267712,1.086106 0.432339,-0.0788 0.01421,-0.915607 z"
           style="opacity:1;fill:#ffffff;fill-opacity:1;stroke:#ffffff;stroke-width:0.159187;stroke-linecap:round;stroke-linejoin:round;stroke-opacity:1" />
        <path
           style="opacity:1;fill:#ffffff;fill-opacity:1;stroke:#ffffff;stroke-width:0.20197;stroke-linecap:round;stroke-linejoin:round;stroke-opacity:1"
           d="m 16.545489,18.045841 -0.75674,1.175256 0.279072,0.520583 0.523137,-1.30106 z"
           id="path955" />
      </g>
      <g
         id="g995"
         transform="translate(54.257814,-35.41086)"
         style="stroke:#ffffff;stroke-opacity:1">
        <path
           id="path971"
           d="M 11.811756,13.65439 8.1973586,11.221168 9.1659225,8.3863467 7.2760416,6.4492187 9.0714284,4.8900669 12.496838,3.2364211 l 3.16555,-1.1811756 1.889881,3.1183034 2.338728,2.2442337 -1.133929,1.5355284 -1.630022,1.181176 c 0,0 0.897693,1.488281 0.708705,1.488281 -0.188988,0 -2.905692,0.661458 -2.905692,0.661458 l -1.630022,1.535528 z"
           style="opacity:1;fill:#000000;fill-opacity:1;stroke:#ffffff;stroke-width:0.264583;stroke-linecap:round;stroke-linejoin:round;stroke-opacity:1" />
        <path
           id="path973"
           d="m 11.315662,6.18936 -1.133928,0.6614583 0.425223,0.3307292 1.204799,-0.8268229 z"
           style="opacity:1;fill:#ffffff;fill-opacity:1;stroke:#ffffff;stroke-width:0.264583;stroke-linecap:round;stroke-linejoin:round;stroke-opacity:1" />
        <path
           id="path975"
           d="M 17.741257,6.8035714 16.607329,5.6696427 16.489211,5.8586308 17.882998,7.1815475 Z"
           style="opacity:1;fill:#ffffff;fill-opacity:1;stroke:#ffffff;stroke-width:0.264583;stroke-linecap:round;stroke-linejoin:round;stroke-opacity:1" />
        <path
           id="path977"
           d="m 13.819754,10.55971 -1.677269,0.897693 0.212612,0.259859 1.795386,-0.897694 z"
           style="opacity:1;fill:#ffffff;fill-opacity:1;stroke:#ffffff;stroke-width:0.264583;stroke-linecap:round;stroke-linejoin:round;stroke-opacity:1" />
      </g>
    </g>
    <path
       id="path1030"
       d="m 73.16419,32.884834 c 0,0 2.13508,1.180821 3.126367,1.453318 0.991287,0.272497 2.668849,-0.454162 2.973861,-0.454162 0.305012,0 1.906321,0 2.592597,0 0.686275,0 1.830067,-1.271653 3.126366,-1.362485 1.296298,-0.09083 2.440092,-0.817492 4.117654,-1.089989 1.677563,-0.272497 2.821355,2.089145 2.821355,2.089145 l 0.228758,2.089144 0.686276,1.362485 c 0,0 0.457518,2.543306 0.07625,3.542463 -0.381265,0.999155 -1.143793,2.997466 -1.677563,3.633293 -0.53377,0.635827 -1.601309,1.453318 -1.601309,1.453318 l -3.431382,-0.635827 -3.278873,1.362486 c 0,0 -2.821355,-0.09084 -3.812641,-0.181666 -0.991287,-0.09084 -3.812643,-1.725813 -3.812643,-1.725813 0,0 -2.668849,-1.816649 -2.668849,-2.724972 0,-0.908323 -1.525057,-5.904102 -1.06754,-6.449097 0.457524,-0.544994 1.601316,-2.361641 1.601316,-2.361641 z"
       style="opacity:1;fill:url(#linearGradient1077);fill-opacity:1;stroke:#040404;stroke-width:0.32955;stroke-linecap:round;stroke-linejoin:round;stroke-opacity:1" />
    <path
       d="m 92.151334,35.609934 -0.228927,-2.089278 c 0,0 -0.07171,-0.147689 -0.205155,-0.364835 -0.133443,-0.217147 -0.328888,-0.503691 -0.576709,-0.781865 -0.247822,-0.278174 -0.547764,-0.548137 -0.890902,-0.731221 -0.171569,-0.09154 -0.35388,-0.160974 -0.545703,-0.199472 -0.191824,-0.0385 -0.393369,-0.04595 -0.603064,-0.01189 -0.419391,0.06812 -0.805012,0.164988 -1.168404,0.272852 -0.363393,0.107863 -0.704172,0.227007 -1.033012,0.340547 -0.32884,0.113541 -0.645964,0.221286 -0.961698,0.306441 -0.315735,0.08516 -0.63039,0.147825 -0.954464,0.170533 -0.324075,0.02271 -0.638715,0.119156 -0.938961,0.251147 -0.300246,0.131991 -0.585776,0.299421 -0.852661,0.464054 -0.128389,0.0792 -0.236498,0.141355 -0.355534,0.214974 l 0.03514,0.565857 1.369942,3.354834 3.260266,0.188619 3.590996,-0.756026 z"
       style="opacity:1;fill:url(#linearGradient1059);fill-opacity:1;stroke:#040404;stroke-width:0.264583;stroke-linecap:round;stroke-linejoin:round;stroke-opacity:1"
       id="path1032" />
    <path
       d="m 82.836657,33.457611 c -0.382327,0.236948 -0.715632,0.426331 -0.979785,0.426331 h -2.592607 c -0.28442,0 -1.761635,0.631208 -2.763655,0.495577 l -0.0078,0.01654 -0.283187,1.747697 -0.165364,0.874365 1.724442,0.637687 2.456698,-0.543119 4.015775,0.259932 -1.369942,-3.354834 z"
       style="opacity:1;fill:#737373;fill-opacity:1;stroke:#040404;stroke-width:0.264583;stroke-linecap:round;stroke-linejoin:round;stroke-opacity:1"
       id="path1039" />
    <path
       d="m 73.164379,32.885036 c 0,0 -1.143929,1.816619 -1.601452,2.361613 -0.01597,0.01902 -0.02902,0.04439 -0.04031,0.0739 l 4.529439,1.681035 0.448552,-2.622062 c -0.07255,-0.0098 -0.142882,-0.02294 -0.209807,-0.04134 -0.991287,-0.272497 -3.126424,-1.453141 -3.126424,-1.453141 z"
       style="opacity:1;fill:#636363;fill-opacity:1;stroke:#040404;stroke-width:0.264583;stroke-linecap:round;stroke-linejoin:round;stroke-opacity:1"
       id="path1044" />
    <path
       id="path1049"
       d="m 86.013207,35.765997 c 0.377976,-0.02362 2.882068,-1.039434 2.882068,-1.039434 l 1.204799,-0.307106 0.07087,1.039435 -3.543527,0.94494 z"
       style="opacity:1;fill:#979797;fill-opacity:1;stroke:none;stroke-width:0.264583;stroke-linecap:round;stroke-linejoin:round;stroke-opacity:1" />
    <path
       id="path1051"
       d="m 76.705544,36.403832 1.228422,0.02362 1.559152,-0.377976 h 2.480468 l 1.063058,0.33073 -0.141741,0.236235 -1.015811,-0.33073 -2.126116,0.09449 -1.81901,0.496093 -1.228422,-0.141741 z"
       style="opacity:1;fill:#979797;fill-opacity:1;stroke:none;stroke-width:0.264583;stroke-linecap:round;stroke-linejoin:round;stroke-opacity:1" />
    <path
       style="opacity:1;fill:#979797;fill-opacity:1;stroke:none;stroke-width:0.264583;stroke-linecap:round;stroke-linejoin:round;stroke-opacity:1"
       d="m 81.683438,42.134598 1.228423,-0.02362 1.559152,0.377976 h 2.480468 l 1.063058,-0.33073 -0.141741,-0.236235 -1.015811,0.33073 -2.126116,-0.09449 -1.81901,-0.496093 -1.228423,0.141741 z"
       id="path1069" />
    <path
       sodipodi:nodetypes="cccccssccc"
       id="path1087"
       d="m -5.5279021,-12.284226 c 0.30047,-6.308719 -2.8121261,-8.38767 -2.8820685,-11.575521 0.047247,-2.882069 4.5829615,-6.094867 4.6774555,-9.827381 0.09449,-3.732515 0,-2.787575 0,-2.787575 l 7.417783,0.04725 c 0,0 -0.09449,0.188988 -0.09449,3.165551 0,2.976562 -3.35453902,5.764137 -3.54352702,8.835194 -0.188988,3.071056 2.26785702,4.110491 2.31510402,12.095238 l -7.890253,0.04725 z"
       style="opacity:1;fill:#baf0f0;fill-opacity:1;stroke:none;stroke-width:0.264583;stroke-linecap:round;stroke-linejoin:round;stroke-opacity:1" />
    <path
       style="opacity:1;fill:#ebebeb;fill-opacity:1;stroke:none;stroke-width:0.264583;stroke-linecap:round;stroke-linejoin:round;stroke-opacity:1"
       d="m 22.442336,-10.488839 c 0.30047,-6.308719 -2.812126,-8.38767 -2.882069,-11.575521 0.04725,-2.882069 4.582962,-6.094867 4.677456,-9.827381 0.09449,-3.732515 0,-2.787575 0,-2.787575 l 7.417783,0.04725 c 0,0 -0.09449,0.188988 -0.09449,3.165551 0,2.976562 -3.354539,5.764137 -3.543527,8.835194 -0.188988,3.071056 2.267857,4.110491 2.315104,12.095238 l -7.890253,0.04725 z"
       id="path1089"
       sodipodi:nodetypes="cccccssccc" />
    <path
       transform="matrix(1.0683522,0,0,0.70436083,-30.427461,-14.652324)"
       inkscape:transform-center-y="0.5088025"
       inkscape:transform-center-x="-0.25959534"
       d="m 16.102116,18.49082 c -1.417213,2.296903 -1.396767,-0.327804 -3.380442,1.475187 -1.129889,1.026972 -0.41166,1.908834 -1.954139,2.416862 -2.7080355,0.891913 -0.744419,-1.114457 -3.5634436,-1.034503 -1.6056976,0.04554 -2.1323372,3.270467 -3.6063165,2.81115 -2.5877744,-0.806395 0.1897041,-4.067623 -1.9244695,-5.676752 -1.20421942,-0.916549 -3.2437285,2.411154 -4.0442682,1.01003 -1.4054581,-2.459866 2.36401821,-2.807988 1.61921076,-5.358277 C -1.1759895,12.681889 -4.925854,12.844098 -4.3414705,11.310265 -3.3155046,8.6174089 -1.4792568,10.187614 0.05530458,8.0454697 0.92938061,6.8253186 -2.2960999,4.3676346 -0.92529356,3.6641628 1.4813465,2.4291209 1.5226883,4.7961769 4.2396358,3.8602408 5.7871912,3.3271378 4.0971225,0.3274827 5.648523,0.42304384 c 2.723698,0.1677708 3.6649593,1.96789556 6.262498,2.78186146 1.479542,0.4636296 2.127847,0.1683926 3.017798,1.3751347 1.562433,2.1186025 -0.626049,0.7073003 0.502978,3.0697554 0.643087,1.3456389 1.388025,-0.2661856 1.573574,1.2666099 0.325756,2.6910347 -0.656077,3.0013227 -1.097544,5.8723577 -0.251456,1.635323 1.001524,2.393757 0.194289,3.702057 z"
       inkscape:randomized="0.108"
       inkscape:rounded="0.53"
       inkscape:flatsided="false"
       sodipodi:arg2="0.94355197"
       sodipodi:arg1="0.46109457"
       sodipodi:r2="9.0732098"
       sodipodi:r1="11.107021"
       sodipodi:cy="12.661894"
       sodipodi:cx="7.316503"
       sodipodi:sides="9"
       id="path1091"
       style="opacity:1;fill:#7b92e2;fill-opacity:1;stroke:none;stroke-width:0.264583;stroke-linecap:round;stroke-linejoin:round;stroke-opacity:1"
       sodipodi:type="star" />
    <g
       transform="matrix(1.6168545,0,0,1.6168545,-2.8719893,-15.954602)"
       id="g1127">
      <path
         style="opacity:1;fill:#ebebeb;fill-opacity:1;stroke:none;stroke-width:0.264583;stroke-linecap:round;stroke-linejoin:round;stroke-opacity:1"
         d="M 3.6380208,19.749256 8.0792409,16.111235 10.394345,18.09561 6.7090773,21.59189 Z"
         id="path1093" />
      <path
         style="opacity:1;fill:#c7c7c7;fill-opacity:1;stroke:none;stroke-width:0.264583;stroke-linecap:round;stroke-linejoin:round;stroke-opacity:1"
         d="m 6.7090771,21.59189 0.2065218,2.211802 3.1905301,-1.5368 -0.718287,-1.453278 0.902035,-0.968852 0.104468,-1.749152 z"
         id="path1095" />
      <path
         style="opacity:1;fill:#afafaf;fill-opacity:1;stroke:none;stroke-width:0.264583;stroke-linecap:round;stroke-linejoin:round;stroke-opacity:1"
         d="m 6.7090771,21.59189 -3.0710563,-1.842634 -0.029882,1.582193 0.6013566,1.186008 0.7516955,1.286235 0.7182869,-0.06682 0.534539,-0.06682 0.7015821,0.133634 z"
         id="path1097" />
    </g>
    <g
       transform="matrix(1.6168545,0,0,1.6168545,-5.9779668,-15.441442)"
       id="g1122">
      <path
         style="opacity:1;fill:#ebebeb;fill-opacity:1;stroke:none;stroke-width:0.264583;stroke-linecap:round;stroke-linejoin:round;stroke-opacity:1"
         d="m 11.542703,17.439337 2.138156,-0.133635 1.620321,-0.684878 1.002261,0.968852 1.002261,1.77066 1.002261,0.501131 -1.002261,0.517834 -2.171565,-0.150339 -2.80633,-1.035669 -0.434313,-0.7684 z"
         id="path1099"
         sodipodi:nodetypes="ccccccccccc" />
      <path
         style="opacity:1;fill:#afafaf;fill-opacity:1;stroke:none;stroke-width:0.264583;stroke-linecap:round;stroke-linejoin:round;stroke-opacity:1"
         d="m 12.327807,19.193293 -0.06682,2.138156 0.785105,1.453278 1.453278,-0.11693 0.7684,-0.718287 -0.133635,-1.720548 z"
         id="path1101" />
      <path
         style="opacity:1;fill:#cfcfcf;fill-opacity:1;stroke:none;stroke-width:0.264583;stroke-linecap:round;stroke-linejoin:round;stroke-opacity:1"
         d="m 15.134135,20.228962 0.133635,1.720547 -0.7684,0.718288 2.923262,-0.534539 0.968852,-0.668174 -0.08352,-1.603617 -1.002261,0.517834 z"
         id="path1103" />
      <path
         style="opacity:1;fill:#cfcfcf;fill-opacity:1;stroke:none;stroke-width:0.264583;stroke-linecap:round;stroke-linejoin:round;stroke-opacity:1"
         d="m 11.542703,17.439337 -0.551244,1.520095 0.317383,1.5368 0.952145,0.835217 0.06682,-2.138156 z"
         id="path1105" />
    </g>
    <g
       transform="matrix(1.6168545,0,0,1.6168545,-6.2564215,-10.874324)"
       id="g1116">
      <path
         style="opacity:1;fill:#ebebeb;fill-opacity:1;stroke:none;stroke-width:0.264583;stroke-linecap:round;stroke-linejoin:round;stroke-opacity:1"
         d="m 7.7721353,10.15811 0.023625,2.078869 1.9843749,0.803199 2.9293148,0.755953 1.842633,-0.330729 0.87407,-1.086682 -0.07087,-2.291481 -3.260044,-1.0158106 -1.984375,0.3071058 z"
         id="path1107" />
      <path
         style="opacity:1;fill:#afafaf;fill-opacity:1;stroke:none;stroke-width:0.264583;stroke-linecap:round;stroke-linejoin:round;stroke-opacity:1"
         d="m 7.7957602,12.236979 0.5905865,2.834821 1.7008923,0.283482 1.960752,0.425224 0.661459,-1.984375 -2.9293151,-0.755953 z"
         id="path1109" />
      <path
         style="opacity:1;fill:#cfcfcf;fill-opacity:1;stroke:none;stroke-width:0.264583;stroke-linecap:round;stroke-linejoin:round;stroke-opacity:1"
         d="m 12.70945,13.796131 -0.661459,1.984375 2.858445,-0.519717 0.566964,-1.464658 -0.04725,-1.417411 -0.87407,1.086682 z"
         id="path1111" />
    </g>
  </g>
</svg>
